<svg width="32" height="32" viewBox="0 0 32 32" fill="none" xmlns="http://www.w3.org/2000/svg">
<path fill-rule="evenodd" clip-rule="evenodd" d="M16 0C7.16344 0 0 7.16344 0 16C0 24.8366 7.16344 32 16 32C24.8366 32 32 24.8366 32 16C32 7.16344 24.8366 0 16 0ZM12.4823 7.51835C13.3925 7.47693 13.6834 7.4668 16.0009 7.4668H15.9983C18.3165 7.4668 18.6063 7.47693 19.5165 7.51835C20.425 7.55995 21.0454 7.70378 21.5894 7.9148C22.1512 8.13258 22.6259 8.42414 23.1005 8.89881C23.5752 9.37313 23.8668 9.84922 24.0854 10.4105C24.2952 10.9531 24.4392 11.5732 24.4819 12.4816C24.5228 13.3918 24.5335 13.6827 24.5335 16.0002C24.5335 18.3178 24.5228 18.6079 24.4819 19.5181C24.4392 20.4262 24.2952 21.0465 24.0854 21.5893C23.8668 22.1503 23.5752 22.6264 23.1005 23.1007C22.6264 23.5754 22.151 23.8677 21.59 24.0856C21.047 24.2967 20.4262 24.4405 19.5178 24.4821C18.6075 24.5235 18.3176 24.5336 15.9999 24.5336C13.6825 24.5336 13.3918 24.5235 12.4816 24.4821C11.5733 24.4405 10.953 24.2967 10.4101 24.0856C9.84921 23.8677 9.37312 23.5754 8.89898 23.1007C8.42449 22.6264 8.13293 22.1503 7.91479 21.5891C7.70394 21.0465 7.56012 20.4264 7.51834 19.5179C7.4771 18.6077 7.46679 18.3178 7.46679 16.0002C7.46679 13.6827 7.47745 13.3917 7.51817 12.4814C7.55905 11.5733 7.70306 10.9531 7.91461 10.4103C8.13328 9.84922 8.42484 9.37313 8.89951 8.89881C9.37383 8.42432 9.84992 8.13276 10.4112 7.9148C10.9538 7.70378 11.5739 7.55995 12.4823 7.51835Z" fill="#646464"/>
<path fill-rule="evenodd" clip-rule="evenodd" d="M15.2355 9.00409C15.3841 9.00385 15.544 9.00393 15.7166 9.004L16.001 9.00409C18.2794 9.00409 18.5495 9.01226 19.4492 9.05315C20.2812 9.0912 20.7328 9.23022 21.0336 9.34702C21.4318 9.50169 21.7157 9.68658 22.0142 9.98525C22.3129 10.2839 22.4978 10.5684 22.6528 10.9666C22.7696 11.267 22.9088 11.7186 22.9467 12.5506C22.9876 13.4502 22.9964 13.7204 22.9964 15.9978C22.9964 18.2751 22.9876 18.5453 22.9467 19.4449C22.9086 20.2769 22.7696 20.7285 22.6528 21.0289C22.4981 21.4271 22.3129 21.7107 22.0142 22.0092C21.7155 22.3079 21.432 22.4928 21.0336 22.6474C20.7331 22.7648 20.2812 22.9034 19.4492 22.9415C18.5496 22.9824 18.2794 22.9913 16.001 22.9913C13.7224 22.9913 13.4524 22.9824 12.5528 22.9415C11.7208 22.9031 11.2692 22.7641 10.9682 22.6472C10.57 22.4926 10.2856 22.3077 9.98689 22.009C9.68822 21.7104 9.50333 21.4266 9.34831 21.0282C9.23151 20.7278 9.09231 20.2762 9.05444 19.4442C9.01355 18.5446 9.00537 18.2744 9.00537 15.9956C9.00537 13.7168 9.01355 13.448 9.05444 12.5485C9.09248 11.7165 9.23151 11.2649 9.34831 10.9641C9.50298 10.5659 9.68822 10.2814 9.98689 9.98276C10.2856 9.68409 10.57 9.4992 10.9682 9.34418C11.269 9.22684 11.7208 9.08818 12.5528 9.04995C13.34 9.0144 13.6451 9.00373 15.2355 9.00195V9.00409ZM20.5559 10.4209C19.9906 10.4209 19.5319 10.8791 19.5319 11.4446C19.5319 12.0099 19.9906 12.4686 20.5559 12.4686C21.1212 12.4686 21.5799 12.0099 21.5799 11.4446C21.5799 10.8792 21.1212 10.4206 20.5559 10.4206V10.4209ZM11.6188 15.9988C11.6188 13.5787 13.5809 11.6166 16.0009 11.6165C18.421 11.6165 20.3826 13.5787 20.3826 15.9988C20.3826 18.4189 18.4212 20.3802 16.0011 20.3802C13.581 20.3802 11.6188 18.4189 11.6188 15.9988Z" fill="#646464"/>
<path fill-rule="evenodd" clip-rule="evenodd" d="M16.0007 13.155C17.5716 13.155 18.8452 14.4285 18.8452 15.9995C18.8452 17.5704 17.5716 18.844 16.0007 18.844C14.4297 18.844 13.1562 17.5704 13.1562 15.9995C13.1562 14.4285 14.4297 13.155 16.0007 13.155V13.155Z" fill="#646464"/>
</svg>
