<svg width="32" height="32" viewBox="0 0 32 32" fill="none" xmlns="http://www.w3.org/2000/svg">
<path fill-rule="evenodd" clip-rule="evenodd" d="M16 0C7.16344 0 0 7.16344 0 16C0 24.8366 7.16344 32 16 32C24.8366 32 32 24.8366 32 16C32 7.16344 24.8366 0 16 0ZM15.5544 13.5582L15.5208 13.0046C15.4201 11.5697 16.3042 10.259 17.7032 9.75059C18.218 9.56981 19.091 9.54721 19.6617 9.70539C19.8856 9.77318 20.3108 9.99916 20.613 10.2025L21.1614 10.5754L21.7658 10.3833C22.1015 10.2816 22.5492 10.1121 22.7506 9.99916C22.9409 9.89747 23.1088 9.84097 23.1088 9.87487C23.1088 10.0669 22.6947 10.7223 22.3477 11.0838C21.8777 11.5923 22.012 11.6375 22.9633 11.2985C23.534 11.1064 23.5452 11.1064 23.4333 11.3211C23.3662 11.4341 23.0192 11.8295 22.6499 12.1911C22.0232 12.8125 21.9896 12.8803 21.9896 13.4001C21.9896 14.2023 21.6091 15.8745 21.2286 16.7897C20.5235 18.5071 19.0126 20.281 17.5017 21.1736C15.3753 22.4277 12.5438 22.7441 10.16 22.0097C9.36539 21.7611 8.00001 21.1284 8.00001 21.0154C8.00001 20.9815 8.4141 20.9363 8.91773 20.925C9.96974 20.9024 11.0218 20.6086 11.9171 20.0889L12.5214 19.7273L11.8276 19.4901C10.8427 19.1511 9.95855 18.3715 9.73472 17.6371C9.66757 17.3998 9.68995 17.3885 10.3167 17.3885L10.9658 17.3772L10.4174 17.1173C9.76829 16.7897 9.17514 16.236 8.88415 15.6711C8.67151 15.2643 8.40291 14.2362 8.48125 14.1571C8.50364 14.1232 8.73866 14.191 9.00726 14.2814C9.77949 14.5638 9.88021 14.496 9.43254 14.0215C8.59317 13.1628 8.33576 11.886 8.73866 10.6771L8.92892 10.1347L9.66757 10.8692C11.1784 12.3493 12.9579 13.2306 14.9948 13.4905L15.5544 13.5582Z" fill="#646464"/>
</svg>
