<svg width="32" height="32" viewBox="0 0 32 32" fill="none" xmlns="http://www.w3.org/2000/svg">
<path fill-rule="evenodd" clip-rule="evenodd" d="M16 0C7.16344 0 0 7.16344 0 16C0 24.8366 7.16344 32 16 32C24.8366 32 32 24.8366 32 16C32 7.16344 24.8366 0 16 0ZM22.6679 10.5003C23.4022 10.7018 23.9805 11.2956 24.1768 12.0496C24.5335 13.4161 24.5335 16.2674 24.5335 16.2674C24.5335 16.2674 24.5335 19.1187 24.1768 20.4853C23.9805 21.2393 23.4022 21.8331 22.6679 22.0347C21.3371 22.4008 16.0001 22.4008 16.0001 22.4008C16.0001 22.4008 10.6632 22.4008 9.3323 22.0347C8.59795 21.8331 8.01962 21.2393 7.82335 20.4853C7.4668 19.1187 7.4668 16.2674 7.4668 16.2674C7.4668 16.2674 7.4668 13.4161 7.82335 12.0496C8.01962 11.2956 8.59795 10.7018 9.3323 10.5003C10.6632 10.1341 16.0001 10.1341 16.0001 10.1341C16.0001 10.1341 21.3371 10.1341 22.6679 10.5003Z" fill="#646464"/>
<path fill-rule="evenodd" clip-rule="evenodd" d="M14.3999 19.1993V13.866L18.6666 16.5327L14.3999 19.1993Z" fill="#646464"/>
</svg>
