<svg width="41" height="41" viewBox="0 0 41 41" fill="none" xmlns="http://www.w3.org/2000/svg">
<path d="M15.0655 0.704932H4.27639C2.23765 0.704932 0.579993 2.36259 0.579993 4.40133V15.1904C0.579993 17.2291 2.23765 18.8868 4.27639 18.8868H15.0655C17.1041 18.8868 18.7619 17.2292 18.7619 15.1904V4.40133C18.7618 2.36259 17.1041 0.704932 15.0655 0.704932ZM16.7636 15.1904C16.7636 16.1264 16.0015 16.8886 15.0655 16.8886H4.27639C3.34037 16.8886 2.57823 16.1264 2.57823 15.1904V4.40133C2.57823 3.46531 3.34037 2.70317 4.27639 2.70317H15.0655C16.0015 2.70317 16.7636 3.46531 16.7636 4.40133V15.1904Z" fill="#3D3D3F" stroke="#3D3D3F" stroke-width="0.2"/>
<path d="M36.2255 0.704932H25.4364C23.3977 0.704932 21.74 2.36259 21.74 4.40133V15.1904C21.74 17.2291 23.3977 18.8868 25.4364 18.8868H36.2255C38.2641 18.8868 39.9219 17.2292 39.9219 15.1904V4.40133C39.9218 2.36259 38.2641 0.704932 36.2255 0.704932ZM37.9236 15.1904C37.9236 16.1264 37.1615 16.8886 36.2255 16.8886H25.4364C24.5004 16.8886 23.7382 16.1264 23.7382 15.1904V4.40133C23.7382 3.46531 24.5004 2.70317 25.4364 2.70317H36.2255C37.1615 2.70317 37.9236 3.46531 37.9236 4.40133V15.1904Z" fill="#3D3D3F" stroke="#3D3D3F" stroke-width="0.2"/>
<path d="M15.0655 22.2832H4.27639C2.23765 22.2832 0.579993 23.9408 0.579993 25.9796V36.7687C0.579993 38.8073 2.23765 40.4651 4.27639 40.4651H15.0655C17.1041 40.4651 18.7619 38.8074 18.7619 36.7687V25.9796C18.7618 23.9408 17.1041 22.2832 15.0655 22.2832ZM16.7636 36.7687C16.7636 37.7047 16.0015 38.4668 15.0655 38.4668H4.27639C3.34037 38.4668 2.57823 37.7047 2.57823 36.7687V25.9796C2.57823 25.0436 3.34037 24.2814 4.27639 24.2814H15.0655C16.0015 24.2814 16.7636 25.0436 16.7636 25.9796V36.7687Z" fill="#3D3D3F" stroke="#3D3D3F" stroke-width="0.2"/>
<path d="M36.2255 22.2832H25.4364C23.3977 22.2832 21.74 23.9408 21.74 25.9796V36.7687C21.74 38.8073 23.3977 40.4651 25.4364 40.4651H36.2255C38.2641 40.4651 39.9219 38.8074 39.9219 36.7687V25.9796C39.9218 23.9408 38.2641 22.2832 36.2255 22.2832ZM37.9236 36.7687C37.9236 37.7047 37.1615 38.4668 36.2255 38.4668H25.4364C24.5004 38.4668 23.7382 37.7047 23.7382 36.7687V25.9796C23.7382 25.0436 24.5004 24.2814 25.4364 24.2814H36.2255C37.1615 24.2814 37.9236 25.0436 37.9236 25.9796V36.7687Z" fill="#3D3D3F" stroke="#3D3D3F" stroke-width="0.2"/>
</svg>
