<svg width="46" height="51" viewBox="0 0 46 51" fill="none" xmlns="http://www.w3.org/2000/svg">
<rect width="46" height="51" fill="#E5E5E5"/>
<g clip-path="url(#clip0_0_1)">
<rect width="1440" height="5515" transform="translate(-290 -1359)" fill="white"/>
<g filter="url(#filter0_f_0_1)">
<rect x="-290" y="-1359" width="1446" height="5791" fill="#F9FAFF"/>
<g filter="url(#filter1_b_0_1)">
<rect x="-293" y="-1379" width="1446" height="5791" fill="url(#paint0_linear_0_1)"/>
</g>
</g>
<g filter="url(#filter2_d_0_1)">
<rect x="-155" y="25.1249" width="356" height="302" rx="23" fill="white"/>
</g>
<g filter="url(#filter3_d_0_1)">
<rect x="95" y="25.1249" width="102" height="102" rx="51" transform="rotate(135 95 25.1249)" fill="white"/>
</g>
<g clip-path="url(#clip1_0_1)">
<path d="M41.6691 6.62706H41.0759C42.2067 4.78599 41.7891 2.31426 39.9742 0.967702C38.0187 -0.48305 35.2397 -0.0160675 33.875 2.02335L30.7944 6.62716H4.33038C2.15513 6.62716 0.385437 8.39685 0.385437 10.5721V35.7937C0.385437 37.9689 2.15513 39.7386 4.33038 39.7386H19.6537L18.4959 44.6015H15.997C14.3685 44.6015 13.0435 45.9264 13.0435 47.555V48.1717H9.96299C9.42364 48.1717 8.98644 48.609 8.98644 49.1482C8.98644 49.6874 9.42364 50.1247 9.96299 50.1247H36.0366C36.5759 50.1247 37.0131 49.6874 37.0131 49.1482C37.0131 48.609 36.5759 48.1717 36.0366 48.1717H32.9561V47.555C32.9561 45.9264 31.6311 44.6015 30.0025 44.6015H27.5037L26.3459 39.7386H41.6692C43.8445 39.7386 45.6141 37.9689 45.6141 35.7937V30.244V10.572C45.6141 8.39676 43.8445 6.62706 41.6691 6.62706ZM27.677 23.7946C26.1502 24.8634 23.2898 23.4106 20.5582 24.8682C19.8917 21.4059 20.3119 18.1496 23.7811 17.4309C24.2294 17.3374 24.7121 17.2951 25.123 17.3033C26.2972 18.1745 27.4849 19.0556 28.6558 19.9245C29.1684 21.4154 28.976 22.8853 27.677 23.7946ZM28.6612 13.3272L31.4255 15.3782L29.2996 17.97C28.4244 17.3207 27.6721 16.7625 26.7969 16.1131C26.9787 15.8415 28.495 13.5754 28.6612 13.3272ZM35.4983 3.10955C36.238 2.00401 37.7464 1.74679 38.8105 2.53632C39.8749 3.32596 40.0655 4.84409 39.2221 5.87249C37.7255 7.69696 34.1676 12.0349 32.6654 13.8664L29.7484 11.7022L35.4983 3.10955ZM31.0029 47.555V48.1717H14.9966V47.555C14.9966 47.0034 15.4454 46.5546 15.997 46.5546H30.0024C30.5541 46.5546 31.0029 47.0034 31.0029 47.555ZM25.4959 44.6015H20.5036L21.6614 39.7386H24.3381L25.4959 44.6015ZM43.6611 35.7937C43.6611 36.892 42.7675 37.7855 41.6692 37.7855C40.119 37.7855 6.07341 37.7855 4.33048 37.7855C3.23216 37.7855 2.33862 36.892 2.33862 35.7937V31.2205H5.12919C5.66854 31.2205 6.10574 30.7832 6.10574 30.244C6.10574 29.7047 5.66854 29.2674 5.12919 29.2674H2.33843V10.572C2.33843 9.47369 3.23196 8.58015 4.33028 8.58015H29.4875C28.552 9.97827 25.8226 14.0571 24.9581 15.349C23.0444 15.3662 21.1338 16.0329 19.883 17.4931C18.181 19.4798 17.882 22.6017 18.9943 26.7717C19.1844 27.4848 20.0741 27.7402 20.6125 27.226C23.1375 24.8132 26.2824 27.445 29.0986 25.1656C30.8178 23.774 31.2246 21.5617 30.5764 19.493C31.4526 18.4247 38.6489 9.65103 39.5272 8.58015H41.669C42.7673 8.58015 43.6609 9.47369 43.6609 10.572V29.2673H12.9413C12.402 29.2673 11.9648 29.7046 11.9648 30.2439C11.9648 30.7831 12.402 31.2204 12.9413 31.2204H43.6611V35.7937Z" fill="#3D3D3F"/>
<path d="M8.84625 29.2863C8.37614 29.3824 8.0611 29.7888 8.0611 30.2444C8.0611 30.8553 8.61959 31.323 9.22809 31.2015C9.76881 31.0917 10.0982 30.5706 9.99469 30.053C9.886 29.5188 9.36784 29.1813 8.84625 29.2863Z" fill="#3D3D3F"/>
</g>
</g>
<defs>
<filter id="filter0_f_0_1" x="-469.001" y="-1502" width="1801" height="6011" filterUnits="userSpaceOnUse" color-interpolation-filters="sRGB">
<feFlood flood-opacity="0" result="BackgroundImageFix"/>
<feBlend mode="normal" in="SourceGraphic" in2="BackgroundImageFix" result="shape"/>
<feGaussianBlur stdDeviation="38.5" result="effect1_foregroundBlur_0_1"/>
</filter>
<filter id="filter1_b_0_1" x="-1070" y="-2156" width="3000" height="7345" filterUnits="userSpaceOnUse" color-interpolation-filters="sRGB">
<feFlood flood-opacity="0" result="BackgroundImageFix"/>
<feGaussianBlur in="BackgroundImageFix" stdDeviation="388.5"/>
<feComposite in2="SourceAlpha" operator="in" result="effect1_backgroundBlur_0_1"/>
<feBlend mode="normal" in="SourceGraphic" in2="effect1_backgroundBlur_0_1" result="shape"/>
</filter>
<filter id="filter2_d_0_1" x="-177" y="7.12488" width="400" height="346" filterUnits="userSpaceOnUse" color-interpolation-filters="sRGB">
<feFlood flood-opacity="0" result="BackgroundImageFix"/>
<feColorMatrix in="SourceAlpha" type="matrix" values="0 0 0 0 0 0 0 0 0 0 0 0 0 0 0 0 0 0 127 0" result="hardAlpha"/>
<feOffset dy="4"/>
<feGaussianBlur stdDeviation="11"/>
<feComposite in2="hardAlpha" operator="out"/>
<feColorMatrix type="matrix" values="0 0 0 0 0.370833 0 0 0 0 0.370833 0 0 0 0 0.370833 0 0 0 0.05 0"/>
<feBlend mode="normal" in2="BackgroundImageFix" result="effect1_dropShadow_0_1"/>
<feBlend mode="normal" in="SourceGraphic" in2="effect1_dropShadow_0_1" result="shape"/>
</filter>
<filter id="filter3_d_0_1" x="-50.1249" y="-43.8751" width="146" height="146" filterUnits="userSpaceOnUse" color-interpolation-filters="sRGB">
<feFlood flood-opacity="0" result="BackgroundImageFix"/>
<feColorMatrix in="SourceAlpha" type="matrix" values="0 0 0 0 0 0 0 0 0 0 0 0 0 0 0 0 0 0 127 0" result="hardAlpha"/>
<feOffset dy="4"/>
<feGaussianBlur stdDeviation="11"/>
<feComposite in2="hardAlpha" operator="out"/>
<feColorMatrix type="matrix" values="0 0 0 0 0.370833 0 0 0 0 0.370833 0 0 0 0 0.370833 0 0 0 0.05 0"/>
<feBlend mode="normal" in2="BackgroundImageFix" result="effect1_dropShadow_0_1"/>
<feBlend mode="normal" in="SourceGraphic" in2="effect1_dropShadow_0_1" result="shape"/>
</filter>
<linearGradient id="paint0_linear_0_1" x1="-334.673" y1="-1379" x2="1836.33" y2="-1142.31" gradientUnits="userSpaceOnUse">
<stop stop-color="#EFEFEF" stop-opacity="0"/>
<stop offset="1" stop-color="#EFEFEF" stop-opacity="0.2"/>
</linearGradient>
<clipPath id="clip0_0_1">
<rect width="1440" height="5515" fill="white" transform="translate(-290 -1359)"/>
</clipPath>
<clipPath id="clip1_0_1">
<rect width="50" height="50" fill="white" transform="translate(-2 0.124878)"/>
</clipPath>
</defs>
</svg>
