<svg width="559" height="381" viewBox="0 0 559 381" fill="none" xmlns="http://www.w3.org/2000/svg">
<g filter="url(#filter0_d_2_421)">
<path d="M120 139.392C120 130.555 127.163 123.392 136 123.392H423C431.837 123.392 439 130.555 439 139.392V240.392C439 249.228 431.837 256.392 423 256.392H136C127.163 256.392 120 249.228 120 240.392V139.392Z" fill="white"/>
<path d="M279.217 116.378C279.617 115.874 280.383 115.874 280.783 116.378L288.239 125.77C288.759 126.425 288.292 127.392 287.456 127.392H272.544C271.708 127.392 271.241 126.425 271.761 125.77L279.217 116.378Z" fill="white"/>
</g>
<defs>
<filter id="filter0_d_2_421" x="0" y="0" width="559" height="380.392" filterUnits="userSpaceOnUse" color-interpolation-filters="sRGB">
<feFlood flood-opacity="0" result="BackgroundImageFix"/>
<feColorMatrix in="SourceAlpha" type="matrix" values="0 0 0 0 0 0 0 0 0 0 0 0 0 0 0 0 0 0 127 0" result="hardAlpha"/>
<feOffset dy="4"/>
<feGaussianBlur stdDeviation="60"/>
<feColorMatrix type="matrix" values="0 0 0 0 0 0 0 0 0 0 0 0 0 0 0 0 0 0 0.05 0"/>
<feBlend mode="normal" in2="BackgroundImageFix" result="effect1_dropShadow_2_421"/>
<feBlend mode="normal" in="SourceGraphic" in2="effect1_dropShadow_2_421" result="shape"/>
</filter>
</defs>
</svg>
