<svg width="14" height="13" viewBox="0 0 14 13" fill="none" xmlns="http://www.w3.org/2000/svg">
<path d="M8.121 0.417909C7.93353 0.605436 7.82821 0.859744 7.82821 1.12491C7.82821 1.39007 7.93353 1.64438 8.121 1.83191L11.413 5.12491L1 5.13191C0.734784 5.13191 0.48043 5.23727 0.292893 5.4248C0.105357 5.61234 0 5.86669 0 6.13191C0 6.39712 0.105357 6.65148 0.292893 6.83902C0.48043 7.02655 0.734784 7.13191 1 7.13191L11.414 7.12491L8.121 10.4179C8.02549 10.5102 7.94931 10.6205 7.8969 10.7425C7.84449 10.8645 7.8169 10.9957 7.81575 11.1285C7.8146 11.2613 7.8399 11.393 7.89018 11.5159C7.94046 11.6388 8.01471 11.7504 8.10861 11.8443C8.2025 11.9382 8.31415 12.0125 8.43705 12.0627C8.55994 12.113 8.69162 12.1383 8.8244 12.1372C8.95718 12.136 9.0884 12.1084 9.2104 12.056C9.33241 12.0036 9.44275 11.9274 9.535 11.8319L13.121 8.24691C13.3996 7.96833 13.6207 7.63759 13.7715 7.27358C13.9222 6.90957 13.9999 6.51942 13.9999 6.12541C13.9999 5.7314 13.9222 5.34125 13.7715 4.97724C13.6207 4.61323 13.3996 4.28249 13.121 4.00391L9.535 0.417909C9.34747 0.230438 9.09316 0.125122 8.828 0.125122C8.56284 0.125122 8.30853 0.230438 8.121 0.417909Z" fill="#595959"/>
</svg>
